<mxfile host="app.diagrams.net" modified="2020-07-25T15:31:05.812Z" agent="5.0 (Windows NT 10.0; Win64; x64) AppleWebKit/537.36 (KHTML, like Gecko) Chrome/84.0.4147.89 Safari/537.36" etag="IWpca8R36Hxv5VQOFrL1" version="13.5.3" type="github">
  <diagram id="r452c2280k7ssnCjEDyR" name="Page-1">
    <mxGraphModel dx="408" dy="496" grid="1" gridSize="10" guides="1" tooltips="1" connect="1" arrows="1" fold="1" page="1" pageScale="1" pageWidth="827" pageHeight="1169" math="0" shadow="0">
      <root>
        <mxCell id="0" />
        <mxCell id="1" parent="0" />
        <mxCell id="p3_7xYDVBj08Sepxbtd5-1" value="" style="whiteSpace=wrap;html=1;aspect=fixed;fillColor=#f5f5f5;strokeColor=#666666;rounded=1;arcSize=6;gradientColor=#b3b3b3;" vertex="1" parent="1">
          <mxGeometry y="210" width="760" height="760" as="geometry" />
        </mxCell>
        <mxCell id="p3_7xYDVBj08Sepxbtd5-2" value="&lt;font style=&quot;font-size: 24px&quot; face=&quot;Times New Roman&quot;&gt;&lt;b&gt;Covid 19 Tracker&lt;/b&gt;&lt;/font&gt;" style="text;html=1;strokeColor=none;fillColor=none;align=center;verticalAlign=middle;whiteSpace=wrap;rounded=0;" vertex="1" parent="1">
          <mxGeometry y="235" width="210" height="20" as="geometry" />
        </mxCell>
        <mxCell id="p3_7xYDVBj08Sepxbtd5-4" value="Word wide" style="rounded=1;whiteSpace=wrap;html=1;" vertex="1" parent="1">
          <mxGeometry x="345" y="230" width="90" height="30" as="geometry" />
        </mxCell>
        <mxCell id="p3_7xYDVBj08Sepxbtd5-5" value="" style="rounded=1;whiteSpace=wrap;html=1;" vertex="1" parent="1">
          <mxGeometry x="22.5" y="275" width="125" height="70" as="geometry" />
        </mxCell>
        <mxCell id="p3_7xYDVBj08Sepxbtd5-7" value="Coronavirus case" style="text;html=1;strokeColor=none;fillColor=none;align=left;verticalAlign=middle;whiteSpace=wrap;rounded=0;" vertex="1" parent="1">
          <mxGeometry x="35" y="280" width="100" height="20" as="geometry" />
        </mxCell>
        <mxCell id="p3_7xYDVBj08Sepxbtd5-8" value="+2000" style="text;html=1;strokeColor=none;fillColor=none;align=left;verticalAlign=middle;whiteSpace=wrap;rounded=0;" vertex="1" parent="1">
          <mxGeometry x="35" y="300" width="100" height="20" as="geometry" />
        </mxCell>
        <mxCell id="p3_7xYDVBj08Sepxbtd5-9" value="1.2 M Total" style="text;html=1;strokeColor=none;fillColor=none;align=left;verticalAlign=middle;whiteSpace=wrap;rounded=0;" vertex="1" parent="1">
          <mxGeometry x="35" y="320" width="100" height="20" as="geometry" />
        </mxCell>
        <mxCell id="p3_7xYDVBj08Sepxbtd5-10" value="" style="rounded=1;whiteSpace=wrap;html=1;" vertex="1" parent="1">
          <mxGeometry x="167.5" y="275" width="125" height="70" as="geometry" />
        </mxCell>
        <mxCell id="p3_7xYDVBj08Sepxbtd5-11" value="Coronavirus case" style="text;html=1;strokeColor=none;fillColor=none;align=left;verticalAlign=middle;whiteSpace=wrap;rounded=0;" vertex="1" parent="1">
          <mxGeometry x="180" y="280" width="100" height="20" as="geometry" />
        </mxCell>
        <mxCell id="p3_7xYDVBj08Sepxbtd5-12" value="+2000" style="text;html=1;strokeColor=none;fillColor=none;align=left;verticalAlign=middle;whiteSpace=wrap;rounded=0;" vertex="1" parent="1">
          <mxGeometry x="180" y="305" width="100" height="10" as="geometry" />
        </mxCell>
        <mxCell id="p3_7xYDVBj08Sepxbtd5-13" value="1.2 M Total" style="text;html=1;strokeColor=none;fillColor=none;align=left;verticalAlign=middle;whiteSpace=wrap;rounded=0;" vertex="1" parent="1">
          <mxGeometry x="180" y="320" width="100" height="20" as="geometry" />
        </mxCell>
        <mxCell id="p3_7xYDVBj08Sepxbtd5-14" value="" style="rounded=1;whiteSpace=wrap;html=1;" vertex="1" parent="1">
          <mxGeometry x="310" y="275" width="125" height="70" as="geometry" />
        </mxCell>
        <mxCell id="p3_7xYDVBj08Sepxbtd5-15" value="Coronavirus case" style="text;html=1;strokeColor=none;fillColor=none;align=left;verticalAlign=middle;whiteSpace=wrap;rounded=0;" vertex="1" parent="1">
          <mxGeometry x="322.5" y="280" width="100" height="20" as="geometry" />
        </mxCell>
        <mxCell id="p3_7xYDVBj08Sepxbtd5-16" value="+2000" style="text;html=1;strokeColor=none;fillColor=none;align=left;verticalAlign=middle;whiteSpace=wrap;rounded=0;" vertex="1" parent="1">
          <mxGeometry x="322.5" y="305" width="100" height="15" as="geometry" />
        </mxCell>
        <mxCell id="p3_7xYDVBj08Sepxbtd5-17" value="1.2 M Total" style="text;html=1;strokeColor=none;fillColor=none;align=left;verticalAlign=middle;whiteSpace=wrap;rounded=0;" vertex="1" parent="1">
          <mxGeometry x="322.5" y="320" width="100" height="20" as="geometry" />
        </mxCell>
        <mxCell id="p3_7xYDVBj08Sepxbtd5-20" value="" style="rounded=1;whiteSpace=wrap;html=1;" vertex="1" parent="1">
          <mxGeometry x="22.5" y="365" width="407.5" height="210" as="geometry" />
        </mxCell>
        <mxCell id="p3_7xYDVBj08Sepxbtd5-21" value="" style="shape=image;html=1;verticalAlign=top;verticalLabelPosition=bottom;labelBackgroundColor=#ffffff;imageAspect=0;aspect=fixed;image=https://cdn4.iconfinder.com/data/icons/small-n-flat/24/map-128.png;rounded=1;" vertex="1" parent="1">
          <mxGeometry x="161.25" y="405" width="130" height="130" as="geometry" />
        </mxCell>
        <mxCell id="p3_7xYDVBj08Sepxbtd5-23" value="" style="rounded=1;whiteSpace=wrap;html=1;arcSize=5;" vertex="1" parent="1">
          <mxGeometry x="470" y="230" width="260" height="345" as="geometry" />
        </mxCell>
        <mxCell id="p3_7xYDVBj08Sepxbtd5-24" value="Case by Country" style="text;html=1;strokeColor=none;fillColor=none;align=center;verticalAlign=middle;whiteSpace=wrap;rounded=0;" vertex="1" parent="1">
          <mxGeometry x="490" y="235" width="110" height="20" as="geometry" />
        </mxCell>
        <mxCell id="p3_7xYDVBj08Sepxbtd5-25" value="Wordwide new cases" style="text;html=1;strokeColor=none;fillColor=none;align=center;verticalAlign=middle;whiteSpace=wrap;rounded=0;" vertex="1" parent="1">
          <mxGeometry x="490" y="450" width="130" height="20" as="geometry" />
        </mxCell>
        <mxCell id="p3_7xYDVBj08Sepxbtd5-30" value="" style="shape=image;html=1;verticalAlign=top;verticalLabelPosition=bottom;labelBackgroundColor=#ffffff;imageAspect=0;aspect=fixed;image=https://cdn0.iconfinder.com/data/icons/fatcow/32/chart_column.png;rounded=1;" vertex="1" parent="1">
          <mxGeometry x="540" y="475" width="100" height="100" as="geometry" />
        </mxCell>
        <mxCell id="p3_7xYDVBj08Sepxbtd5-31" value="&lt;table border=&quot;0&quot; width=&quot;100%&quot; height=&quot;100%&quot; style=&quot;width:100%;height:100%;border-collapse:collapse;&quot;&gt;&lt;tr&gt;&lt;td align=&quot;center&quot;&gt;Value 1&lt;/td&gt;&lt;td align=&quot;center&quot;&gt;Value 2&lt;/td&gt;&lt;td align=&quot;center&quot;&gt;Value 3&lt;/td&gt;&lt;/tr&gt;&lt;tr&gt;&lt;td align=&quot;center&quot;&gt;Value 4&lt;/td&gt;&lt;td align=&quot;center&quot;&gt;Value 5&lt;/td&gt;&lt;td align=&quot;center&quot;&gt;Value 6&lt;/td&gt;&lt;/tr&gt;&lt;tr&gt;&lt;td align=&quot;center&quot;&gt;Value 7&lt;/td&gt;&lt;td align=&quot;center&quot;&gt;Value 8&lt;/td&gt;&lt;td align=&quot;center&quot;&gt;Value 9&lt;/td&gt;&lt;/tr&gt;&lt;/table&gt;" style="text;html=1;strokeColor=#c0c0c0;fillColor=none;overflow=fill;rounded=1;arcSize=4;" vertex="1" parent="1">
          <mxGeometry x="490" y="265" width="230" height="165" as="geometry" />
        </mxCell>
      </root>
    </mxGraphModel>
  </diagram>
</mxfile>
